<svg xmlns="http://www.w3.org/2000/svg" width="860" height="479" viewBox="0 0 860 479">
<g>
<path d="M 456.00 321.07 C443.12,323.69 422.93,324.35 411.79,322.52 C385.39,318.19 358.91,304.05 337.92,283.07 C327.54,272.70 322.52,265.97 317.10,255.20 C306.98,235.08 303.59,220.22 303.60,196.00 C303.61,157.76 315.59,128.97 342.02,103.65 C356.90,89.39 372.45,79.85 391.49,73.31 C405.60,68.46 425.91,65.42 427.46,67.93 C428.15,69.06 426.68,69.54 416.95,71.39 C407.36,73.21 397.14,76.19 398.67,76.71 C399.31,76.93 403.25,76.41 407.42,75.55 C411.59,74.69 420.51,73.79 427.25,73.54 L 439.50 73.10 L 430.50 74.04 C397.29,77.52 370.60,89.09 349.43,109.20 C339.86,118.29 327.44,134.30 332.25,131.35 C332.94,130.93 332.75,131.69 331.83,133.04 C330.91,134.39 329.68,135.39 329.09,135.25 C327.65,134.92 320.72,148.83 321.42,150.66 C321.73,151.45 321.57,151.85 321.06,151.54 C319.69,150.69 315.75,161.89 315.71,166.79 C315.68,169.63 315.36,170.64 314.77,169.79 C314.18,168.94 314.08,169.26 314.49,170.72 C314.83,171.93 314.63,174.63 314.04,176.72 C312.01,183.83 310.70,213.32 312.06,221.29 C312.96,226.64 313.48,227.98 314.07,226.50 C315.22,223.60 315.15,222.79 313.84,223.60 C313.03,224.10 312.88,223.59 313.33,221.91 C313.68,220.58 314.03,218.15 314.10,216.50 L 314.24 213.50 L 315.02 216.50 C315.46,218.19 315.59,214.69 315.33,208.50 C315.08,202.45 315.30,194.57 315.81,191.00 C317.19,181.49 322.43,162.04 324.95,157.09 C326.16,154.73 326.89,152.15 326.58,151.35 C326.27,150.55 326.40,150.13 326.87,150.42 C327.33,150.70 328.23,149.80 328.86,148.40 C329.54,146.92 329.60,146.13 329.01,146.50 C327.28,147.56 327.87,146.07 331.90,139.17 C343.09,120.04 360.14,103.83 378.50,94.88 C383.80,92.29 385.51,91.74 383.57,93.24 C381.96,94.48 379.26,96.76 377.57,98.31 C374.60,101.03 374.58,101.10 377.00,100.44 C378.45,100.05 376.11,102.31 371.44,105.81 C358.34,115.63 344.91,131.24 346.21,135.14 C346.39,135.68 348.56,134.60 351.02,132.72 C353.48,130.85 356.57,128.75 357.87,128.06 C360.73,126.54 360.33,127.45 355.49,133.50 C346.97,144.13 340.00,158.36 335.16,175.00 C330.38,191.47 329.65,196.78 330.32,210.31 C331.32,230.64 335.69,245.14 345.22,259.74 C350.27,267.48 359.53,278.00 361.28,278.00 C361.83,278.00 364.13,279.70 366.39,281.79 C374.29,289.07 393.55,297.70 413.00,302.67 C420.90,304.69 444.80,305.57 451.82,304.09 C460.47,302.28 477.19,296.99 480.00,295.18 C481.38,294.30 484.98,292.39 488.00,290.95 C495.02,287.60 510.97,274.09 517.65,265.85 C522.91,259.36 528.04,254.24 526.52,257.00 C521.98,265.23 508.36,280.14 495.50,290.95 C492.51,293.47 492.26,293.87 494.50,292.53 C501.10,288.59 508.69,282.09 519.31,271.31 C525.44,265.09 530.81,260.00 531.23,260.00 C534.45,260.00 526.78,270.25 514.01,282.98 C506.57,290.40 503.83,293.65 506.25,292.15 C508.38,290.84 510.00,290.33 510.00,290.98 C510.00,294.20 527.69,277.83 536.82,266.16 C541.80,259.80 542.24,260.36 537.79,267.41 C520.56,294.71 491.30,313.91 456.00,321.07 ZM 647.00 417.00 L 647.00 448.00 L 632.00 448.00 L 632.00 355.00 L 685.50 355.00 L 691.54 357.86 C702.79,363.18 709.00,373.06 709.00,385.64 C709.00,396.86 702.77,407.96 693.89,412.55 C692.30,413.38 691.00,414.46 691.00,414.97 C691.00,415.47 695.05,422.86 700.00,431.39 C704.95,439.92 709.00,447.15 709.00,447.45 C709.00,447.75 705.01,448.00 700.13,448.00 L 691.26 448.00 L 682.38 432.53 L 673.50 417.06 L 660.25 417.03 ZM 445.34 283.94 C434.62,286.11 415.80,286.57 403.41,284.95 C388.81,283.05 360.88,270.58 353.00,262.46 L 348.50 257.82 L 357.00 263.49 C370.38,272.41 380.54,276.92 391.10,278.62 C396.13,279.43 400.44,279.89 400.69,279.65 C400.93,279.40 396.56,277.78 390.96,276.04 C385.37,274.30 380.99,272.68 381.22,272.44 C381.46,272.20 383.87,272.66 386.58,273.46 C401.92,278.00 424.64,279.27 441.50,276.53 C450.46,275.08 457.05,273.27 458.00,272.01 C458.27,271.64 462.55,270.12 467.50,268.62 C479.42,265.02 482.08,263.93 481.45,262.92 C481.16,262.46 479.79,262.51 478.41,263.04 C476.55,263.74 476.07,263.69 476.61,262.83 C477.06,262.09 476.81,261.85 475.91,262.18 C471.59,263.79 463.54,266.03 456.50,267.59 C452.10,268.57 448.25,269.73 447.94,270.18 C446.77,271.89 435.00,273.36 422.50,273.35 C409.62,273.34 392.44,270.65 388.17,267.96 C386.71,267.04 386.76,266.97 388.50,267.40 C400.96,270.48 418.59,272.30 415.21,270.15 C414.34,269.60 415.22,268.95 417.92,268.14 C426.62,265.54 424.15,263.01 409.50,259.52 C398.33,256.85 377.72,247.80 374.85,244.29 C374.11,243.39 377.36,244.75 382.09,247.32 C391.87,252.64 409.03,257.61 421.00,258.61 C431.59,259.49 449.82,256.40 459.50,252.09 C467.59,248.49 469.13,247.96 469.98,248.49 C470.51,248.82 471.97,248.43 473.22,247.64 C474.47,246.84 477.98,245.16 481.00,243.90 C484.02,242.64 486.73,241.30 487.00,240.93 C487.27,240.56 490.39,238.39 493.93,236.11 C508.28,226.87 525.12,205.37 529.63,190.56 C530.97,186.13 532.98,177.55 534.09,171.50 C536.87,156.32 535.74,148.34 528.90,135.00 C524.17,125.77 524.13,125.61 527.37,129.24 C529.20,131.30 532.11,135.58 533.82,138.74 C538.72,147.76 537.53,142.56 532.34,132.24 C529.78,127.15 528.03,122.65 528.44,122.24 C529.55,121.15 534.37,127.32 537.77,134.16 L 540.72 140.13 L 541.41 136.82 C541.98,134.02 542.24,133.77 543.08,135.22 C546.11,140.49 548.26,152.90 548.33,165.50 C548.40,178.60 547.51,184.85 543.81,197.26 C538.12,216.36 518.89,244.70 502.82,257.69 C490.03,268.02 463.02,280.35 445.34,283.94 ZM 407.00 392.52 L 407.00 448.00 L 391.00 448.00 L 391.00 354.52 L 414.26 377.76 L 437.52 401.00 L 460.50 378.00 C473.14,365.35 483.82,355.00 484.24,355.00 C484.66,355.00 485.00,375.92 485.00,401.50 L 485.00 448.00 L 469.00 448.00 L 469.00 420.50 C469.00,405.38 468.86,393.00 468.68,393.00 C468.51,393.00 461.54,399.86 453.20,408.25 L 438.04 423.50 ZM 244.00 432.03 L 244.00 448.00 L 197.50 448.00 C171.93,448.00 151.00,447.73 151.00,447.39 C151.00,447.06 164.07,430.18 180.03,409.89 C196.00,389.59 209.33,372.32 209.64,371.49 C210.14,370.19 206.40,370.00 180.11,370.00 L 150.00 370.00 L 150.00 355.00 L 243.05 355.00 L 235.78 364.36 C231.77,369.52 224.13,379.30 218.79,386.11 C213.45,392.93 203.28,405.92 196.19,415.00 L 183.30 431.50 L 213.65 431.76 ZM 537.12 431.96 L 528.78 448.00 L 511.00 448.00 L 534.25 401.50 C547.03,375.92 557.72,355.00 558.00,355.00 C558.28,355.00 568.97,375.92 581.75,401.50 L 605.00 448.00 L 596.25 447.98 L 587.50 447.96 L 583.39 440.23 L 579.27 432.50 L 558.20 432.23 ZM 296.50 432.03 L 287.91 448.00 L 279.46 448.00 C274.81,448.00 271.00,447.77 271.00,447.50 C271.00,446.52 317.01,355.00 317.50,355.00 C317.99,355.00 364.00,446.52 364.00,447.50 C364.00,447.77 360.04,448.00 355.20,448.00 L 346.40 448.00 L 338.60 432.00 ZM 51.50 440.25 L 47.50 447.99 L 38.75 448.00 L 30.00 448.00 L 53.23 401.53 C66.01,375.97 76.74,355.38 77.09,355.78 C78.25,357.10 123.00,446.05 123.00,447.03 C123.00,447.58 119.31,448.00 114.51,448.00 L 106.02 448.00 L 101.99 439.98 L 97.96 431.96 L 76.73 432.23 L 55.50 432.50 ZM 757.50 440.25 L 753.50 447.99 L 744.75 448.00 L 736.00 448.00 L 759.23 401.53 C772.01,375.97 782.76,355.38 783.12,355.78 C784.01,356.74 829.00,446.57 829.00,447.37 C829.00,447.72 825.18,448.00 820.51,448.00 L 812.02 448.00 L 807.99 439.98 L 803.96 431.96 L 782.73 432.23 L 761.50 432.50 ZM 489.50 106.00 C488.38,107.24 486.23,115.20 483.50,128.22 C481.16,139.37 478.99,147.82 478.68,147.00 C478.37,146.18 476.53,136.98 474.60,126.56 C471.70,110.97 470.67,107.22 468.79,105.34 C466.95,103.51 462.53,102.24 446.24,98.87 C435.10,96.57 426.14,94.53 426.32,94.35 C426.50,94.17 434.94,92.42 445.08,90.48 C465.79,86.50 468.60,85.62 470.21,82.61 C470.83,81.45 473.23,71.50 475.53,60.50 C478.44,46.64 479.92,41.27 480.37,43.00 C480.72,44.38 482.58,53.83 484.51,64.00 C487.42,79.35 488.40,82.84 490.28,84.50 C491.89,85.93 497.95,87.61 511.52,90.37 C521.96,92.51 530.83,94.55 531.24,94.91 C531.65,95.28 524.22,97.07 514.74,98.88 C494.13,102.83 491.76,103.50 489.50,106.00 ZM 647.22 385.75 L 646.95 401.00 L 664.54 401.00 C675.58,401.00 682.94,400.58 684.32,399.88 C694.88,394.45 696.67,382.45 688.07,374.68 C683.24,370.32 680.13,369.79 661.50,370.20 L 647.50 370.50 ZM 64.00 415.98 C64.00,416.62 68.87,417.00 77.00,417.00 C84.15,417.00 90.00,416.78 90.00,416.51 C90.00,415.23 77.44,391.00 76.78,391.00 C75.94,391.00 64.00,414.35 64.00,415.98 ZM 770.00 416.11 C770.00,416.60 775.85,417.00 783.00,417.00 C790.15,417.00 796.00,416.78 796.00,416.51 C796.00,415.25 783.45,391.00 782.79,391.00 C782.01,391.00 770.00,414.58 770.00,416.11 ZM 310.72 403.54 L 304.01 417.00 L 331.01 417.00 L 324.39 403.75 C320.75,396.46 317.69,390.41 317.60,390.29 C317.50,390.18 314.40,396.14 310.72,403.54 ZM 545.00 416.51 C545.00,416.78 550.85,417.00 558.00,417.00 C565.15,417.00 571.00,416.78 571.00,416.51 C571.00,415.50 558.51,391.00 558.00,391.00 C557.49,391.00 545.00,415.50 545.00,416.51 ZM 825.46 370.38 C820.19,372.40 813.00,367.87 813.00,362.53 C813.00,355.67 823.64,352.18 827.93,357.63 C829.07,359.08 830.00,361.13 830.00,362.18 C830.00,364.90 827.37,369.64 825.46,370.38 ZM 817.65 367.17 C819.83,369.57 823.50,369.50 826.00,367.00 C828.48,364.52 828.54,361.89 826.19,358.99 C824.18,356.51 819.89,356.02 817.50,358.00 C815.50,359.66 815.59,364.89 817.65,367.17 ZM 319.06 141.85 C319.09,142.21 319.65,141.66 320.31,140.64 C333.50,120.05 340.71,111.51 354.26,100.40 C363.76,92.61 366.35,90.26 364.00,91.53 C353.43,97.28 339.06,110.54 330.68,122.29 C325.79,129.16 318.95,140.66 319.06,141.85 ZM 352.25 142.25 C348.55,147.37 346.65,148.76 349.53,144.25 C354.51,136.44 360.26,128.98 363.47,126.16 C369.93,120.49 369.34,122.84 362.44,130.25 C358.73,134.24 354.15,139.64 352.25,142.25 ZM 396.73 84.60 C391.47,86.45 389.56,86.33 393.97,84.42 C402.37,80.77 412.64,78.77 424.50,78.46 L 436.50 78.15 L 426.67 79.02 C415.92,79.98 402.97,82.39 396.73,84.60 ZM 820.64 365.50 C819.53,368.40 818.00,366.96 818.00,363.00 C818.00,359.13 818.11,359.00 821.36,359.00 C824.62,359.00 824.73,359.13 824.73,363.00 C824.73,365.20 824.34,367.00 823.86,367.00 C823.39,367.00 823.00,366.33 823.00,365.50 C823.00,364.67 822.60,364.00 822.11,364.00 C821.62,364.00 820.95,364.67 820.64,365.50 ZM 417.27 282.45 C416.09,283.72 437.78,282.14 444.00,280.51 C447.90,279.48 448.36,279.22 445.58,279.61 C443.43,279.91 436.35,280.49 429.85,280.89 C423.35,281.30 417.69,282.00 417.27,282.45 ZM 326.40 142.25 C324.54,145.90 324.00,146.66 324.00,145.62 C324.00,144.54 326.98,139.00 327.55,139.00 C327.83,139.00 327.31,140.46 326.40,142.25 ZM 347.00 150.00 C346.41,151.10 345.70,152.00 345.43,152.00 C345.15,152.00 345.41,151.10 346.00,150.00 C346.59,148.90 347.30,148.00 347.57,148.00 C347.85,148.00 347.59,148.90 347.00,150.00 ZM 329.00 134.12 C329.00,134.67 329.45,134.84 330.00,134.50 C330.55,134.16 331.00,133.43 331.00,132.88 C331.00,132.33 330.55,132.16 330.00,132.50 C329.45,132.84 329.00,133.57 329.00,134.12 ZM 821.00 361.00 C821.00,361.55 821.45,362.00 822.00,362.00 C822.55,362.00 823.00,361.55 823.00,361.00 C823.00,360.45 822.55,360.00 822.00,360.00 C821.45,360.00 821.00,360.45 821.00,361.00 ZM 447.25 274.34 C447.94,274.62 447.38,274.84 446.00,274.84 C444.62,274.84 444.06,274.62 444.75,274.34 C445.44,274.06 446.56,274.06 447.25,274.34 Z" fill="rgb(20,89,135)"/>
</g>
</svg>