<svg xmlns="http://www.w3.org/2000/svg" width="1175" height="893" viewBox="0 0 1175 893">
<g>
<path d="M 557.50 823.32 C466.93,815.48 384.68,777.58 321.43,714.52 C281.05,674.27 252.95,630.75 233.06,577.65 C219.02,540.19 210.05,492.92 210.01,456.25 L 210.00 446.00 L 332.50 446.00 C399.88,446.00 455.00,445.62 455.00,445.16 C455.00,444.70 439.43,440.09 420.39,434.91 C398.90,429.06 385.58,424.97 385.23,424.11 C384.40,422.02 386.46,420.89 407.08,412.04 C470.15,385.00 524.70,367.74 573.00,359.57 L 587.35 357.14 L 599.43 359.10 C647.06,366.83 697.56,383.09 771.50,414.49 C788.29,421.62 790.27,422.69 789.74,424.28 C789.56,424.82 774.19,429.46 755.58,434.59 C736.98,439.72 721.51,444.16 721.21,444.46 C720.91,444.76 720.90,445.23 721.18,445.51 C721.46,445.79 776.32,446.13 843.10,446.26 L 964.50 446.50 L 964.50 453.93 L 964.50 461.37 L 883.66 473.97 L 802.82 486.57 L 785.84 513.53 C776.50,528.37 764.35,548.00 758.85,557.16 L 748.84 573.82 L 736.17 580.30 C721.18,587.98 708.17,592.96 692.67,596.96 C680.95,599.98 657.41,603.75 656.43,602.76 C654.98,601.31 667.54,581.12 680.82,563.57 C685.01,558.03 699.03,540.22 711.99,524.00 C741.79,486.68 740.87,487.87 748.00,477.42 C751.31,472.57 753.67,468.28 753.26,467.88 C752.84,467.48 749.40,466.33 745.61,465.33 C738.86,463.54 738.69,463.55 737.61,465.42 C735.25,469.50 718.81,490.93 711.46,499.50 C707.21,504.45 696.67,516.15 688.03,525.50 C653.19,563.20 640.38,578.95 632.99,593.14 C623.08,612.19 624.00,627.31 635.78,638.79 C647.75,650.44 667.38,656.43 697.75,657.68 C706.14,658.03 712.99,658.58 712.98,658.91 C712.97,659.23 712.40,661.67 711.71,664.32 L 710.46 669.15 L 665.74 685.41 L 621.03 701.66 L 620.53 698.58 C620.25,696.89 618.67,681.33 617.01,664.00 C615.35,646.67 609.71,588.62 604.47,535.00 C599.23,481.38 594.06,428.27 592.99,417.00 C590.51,391.01 590.09,388.00 588.94,388.00 C588.36,388.00 588.00,470.82 588.00,606.00 L 588.00 824.00 L 574.75 823.83 C567.46,823.74 559.70,823.51 557.50,823.32 ZM 559.72 741.25 C559.43,739.74 557.97,730.40 556.48,720.50 C554.99,710.60 553.26,701.99 552.63,701.37 C551.49,700.24 522.45,689.29 485.35,676.00 C466.43,669.22 465.17,668.62 464.65,666.01 C464.35,664.48 463.82,662.13 463.48,660.77 L 462.86 658.32 L 475.86 657.66 C508.94,655.98 527.93,650.23 539.90,638.26 C547.40,630.76 549.43,625.15 548.79,613.63 C547.74,594.64 536.80,578.49 492.66,530.69 C468.65,504.69 456.97,490.91 445.27,474.75 C440.59,468.29 436.48,463.00 436.13,463.01 C435.78,463.01 432.24,464.02 428.26,465.26 L 421.02 467.50 L 431.77 482.50 C437.67,490.75 452.83,510.33 465.44,526.00 C497.29,565.59 511.02,584.46 518.46,598.90 L 520.21 602.31 L 512.85 601.63 C501.14,600.54 481.84,596.29 468.66,591.90 C456.54,587.85 434.56,577.96 429.17,574.12 C427.61,573.01 422.38,565.45 417.54,557.30 C407.45,540.31 375.32,489.15 373.51,487.18 C372.43,486.01 291.13,472.54 290.28,473.39 C289.56,474.10 293.32,498.58 296.09,511.23 C301.73,537.02 309.88,559.33 322.87,584.55 C359.94,656.53 423.92,709.37 503.03,733.34 C518.46,738.01 546.60,743.57 556.38,743.88 C560.08,743.99 560.23,743.88 559.72,741.25 ZM 604.00 823.01 C604.00,821.51 616.03,744.62 616.29,744.46 C616.40,744.39 621.00,743.76 626.50,743.08 C653.87,739.65 683.34,731.37 710.09,719.59 C759.43,697.86 805.55,658.97 836.54,612.93 L 842.98 603.37 L 837.15 585.93 C832.42,571.78 831.50,567.98 832.25,565.75 L 833.17 563.00 L 885.89 563.00 L 938.61 563.00 L 940.81 569.85 L 943.02 576.70 L 937.97 588.97 C894.37,695.05 805.60,775.53 696.00,808.34 C673.05,815.22 642.72,820.98 621.50,822.49 C617.10,822.81 611.36,823.29 608.75,823.57 C605.76,823.88 604.00,823.68 604.00,823.01 ZM 699.20 638.40 C686.00,636.60 672.98,633.74 666.00,631.10 C660.35,628.96 654.05,624.63 655.08,623.60 C655.39,623.28 659.67,622.32 664.58,621.48 C684.35,618.07 710.27,610.62 727.29,603.44 C731.62,601.61 734.94,600.65 734.67,601.31 C734.39,601.96 731.49,608.58 728.23,616.00 C724.97,623.42 721.47,631.86 720.46,634.75 L 718.60 640.00 L 714.05 639.90 C711.55,639.84 704.87,639.16 699.20,638.40 ZM 210.52 421.75 C219.97,290.85 293.16,176.59 407.61,114.07 C457.91,86.60 520.06,69.81 575.00,68.87 L 587.50 68.65 L 588.00 170.08 C588.28,225.86 588.78,271.05 589.13,270.50 C589.73,269.54 591.62,263.20 593.97,254.24 L 595.08 249.98 L 644.79 250.24 L 694.50 250.50 L 695.08 257.50 C696.32,272.31 705.67,283.65 724.92,293.68 C727.91,295.23 730.56,297.14 730.81,297.91 C731.31,299.45 723.96,299.37 630.83,296.85 C598.66,295.99 577.51,295.99 544.83,296.85 C448.72,299.40 443.89,299.45 444.50,297.85 C444.81,297.04 447.64,295.13 450.78,293.59 C469.85,284.27 481.00,270.20 481.00,255.46 L 481.00 250.00 L 530.50 250.00 C577.01,250.00 580.00,249.89 579.92,248.25 C579.87,247.29 578.86,242.90 577.67,238.50 L 575.50 230.50 L 569.50 230.53 C566.20,230.55 550.11,230.93 533.75,231.39 C517.16,231.85 504.01,231.84 504.03,231.36 C504.04,230.89 506.33,228.96 509.11,227.07 C518.90,220.42 524.61,210.93 525.68,199.53 L 526.29 193.00 L 545.64 193.00 C563.41,193.00 565.00,192.86 565.00,191.25 C564.99,190.29 562.59,180.50 559.64,169.50 L 554.30 149.50 L 548.03 149.75 C535.20,150.26 504.55,157.73 483.33,165.52 C469.15,170.72 439.26,185.72 426.68,193.95 C353.41,241.84 305.79,314.36 292.03,399.00 C290.91,405.88 290.00,412.94 290.00,414.69 C290.00,416.45 289.49,418.20 288.87,418.58 C287.83,419.22 214.16,431.00 211.18,431.00 C210.12,431.00 209.99,429.11 210.52,421.75 ZM 767.50 393.88 C731.90,378.69 691.45,364.05 661.60,355.54 C630.89,346.79 592.41,339.34 583.37,340.39 C560.00,343.11 514.19,353.98 483.02,364.20 C454.91,373.42 442.36,378.24 393.24,398.70 C390.45,399.86 393.61,395.21 400.65,387.78 C420.10,367.25 432.92,344.45 436.32,324.30 L 437.64 316.50 L 587.35 316.25 C706.65,316.04 737.13,316.25 737.39,317.25 C737.57,317.94 738.40,322.11 739.24,326.53 C742.89,345.81 755.29,367.44 774.18,387.50 C780.96,394.70 784.52,400.13 782.32,399.92 C781.87,399.88 775.20,397.16 767.50,393.88 ZM 832.11 327.25 C831.12,324.86 831.69,322.34 836.49,308.03 C839.52,298.98 842.00,290.82 842.00,289.91 C842.00,287.69 830.59,270.74 821.20,259.00 C805.94,239.93 782.56,217.64 763.27,203.76 C722.88,174.71 674.18,155.46 627.00,149.90 C621.22,149.22 616.15,148.36 615.71,148.00 C614.80,147.22 602.59,70.07 603.28,69.39 C603.95,68.72 628.78,70.82 641.00,72.58 C721.98,84.26 795.71,121.00 853.56,178.50 C889.41,214.13 918.76,258.13 937.53,304.33 L 942.34 316.17 L 940.11 323.08 L 937.88 330.00 L 885.56 330.00 L 833.24 330.00 L 832.11 327.25 ZM 625.00 230.95 C614.83,230.57 605.07,230.20 603.33,230.13 L 600.16 230.00 L 604.88 211.75 L 609.59 193.50 L 629.55 193.50 L 649.50 193.50 L 650.18 200.34 C651.29,211.65 657.69,221.71 668.25,228.76 C670.31,230.14 672.00,231.43 672.00,231.63 C672.00,232.14 647.23,231.78 625.00,230.95 ZM 456.69 639.25 C456.45,638.84 454.12,633.10 451.50,626.50 C448.89,619.90 445.22,611.46 443.36,607.75 C441.50,604.04 440.14,601.00 440.34,601.00 C440.53,601.00 446.66,603.27 453.95,606.05 C470.13,612.23 488.14,617.25 505.82,620.53 C513.14,621.89 519.62,623.00 520.22,623.00 C522.04,623.00 517.74,627.09 513.82,629.09 C502.61,634.81 458.62,642.64 456.69,639.25 Z" fill="rgba(0,0,0,1)"/>
</g>
</svg>