<svg xmlns="http://www.w3.org/2000/svg" width="860" height="1219" viewBox="0 0 860 1219">
<g>
<path d="M 158.53 1150.75 C158.87,1148.96 164.86,1124.32 171.85,1096.00 L 184.55 1044.50 L 205.28 1044.23 C224.98,1043.97 226.00,1044.05 226.00,1045.84 C226.00,1046.87 223.98,1056.22 221.51,1066.61 C219.04,1077.00 217.01,1085.84 217.01,1086.25 C217.00,1086.66 223.76,1087.00 232.02,1087.00 C246.70,1087.00 247.07,1086.95 247.86,1084.75 C248.31,1083.51 250.64,1073.84 253.03,1063.25 L 257.39 1044.00 L 278.20 1044.00 C294.16,1044.00 299.00,1044.29 299.02,1045.25 C299.02,1045.94 293.08,1070.69 285.81,1100.25 L 272.59 1154.00 L 251.80 1154.00 C235.81,1154.00 231.01,1153.71 231.02,1152.75 C231.04,1152.06 233.01,1143.73 235.42,1134.23 L 239.78 1116.95 L 224.17 1117.23 L 208.55 1117.50 L 204.18 1135.75 L 199.82 1154.00 L 178.86 1154.00 L 157.91 1154.00 L 158.53 1150.75 ZM 201.38 1134.25 C203.52,1125.04 205.67,1116.71 206.17,1115.75 C206.97,1114.19 208.88,1114.00 223.91,1114.00 C237.31,1114.00 241.00,1114.29 241.94,1115.43 C242.88,1116.56 242.19,1120.47 238.66,1133.95 L 234.18 1151.04 L 252.32 1150.77 L 270.46 1150.50 L 283.02 1099.00 L 295.58 1047.50 L 278.15 1047.23 C268.56,1047.08 260.49,1047.17 260.22,1047.44 C259.95,1047.72 257.59,1057.01 254.98,1068.09 C252.32,1079.37 249.63,1088.62 248.86,1089.11 C248.11,1089.58 240.47,1089.98 231.87,1089.98 C219.06,1090.00 216.02,1089.72 214.98,1088.47 C213.94,1087.22 214.48,1083.60 218.00,1068.22 C220.35,1057.93 222.49,1048.94 222.75,1048.25 C223.11,1047.28 219.19,1047.00 205.17,1047.00 C188.86,1047.00 187.09,1047.17 186.62,1048.75 C185.29,1053.30 162.00,1149.01 162.00,1149.94 C162.00,1150.65 167.93,1151.00 179.75,1151.00 L 197.50 1150.99 L 201.38 1134.25 ZM 291.00 1152.98 C291.00,1152.15 313.75,1060.39 317.09,1047.75 L 318.08 1044.00 L 365.11 1044.00 C409.42,1044.00 412.11,1044.10 411.62,1045.75 C411.34,1046.71 410.38,1050.43 409.49,1054.00 C408.60,1057.57 406.99,1063.53 405.90,1067.23 L 403.93 1073.97 L 378.24 1074.23 L 352.55 1074.50 L 351.37 1079.78 C350.73,1082.68 349.92,1086.17 349.58,1087.53 L 348.96 1090.00 L 374.92 1090.00 L 400.87 1090.00 L 398.90 1097.25 C397.81,1101.24 396.25,1106.86 395.43,1109.75 L 393.94 1115.00 L 368.10 1115.00 L 342.26 1115.00 L 341.65 1118.75 C341.32,1120.81 340.76,1123.96 340.40,1125.75 L 339.75 1129.00 L 365.38 1129.00 C379.47,1129.00 391.00,1129.28 391.00,1129.63 C391.00,1129.97 389.58,1135.60 387.84,1142.13 L 384.69 1154.00 L 337.84 1154.00 C306.81,1154.00 291.00,1153.66 291.00,1152.98 ZM 384.34 1143.75 C385.29,1139.76 386.32,1135.49 386.64,1134.25 L 387.23 1132.00 L 362.68 1132.00 C345.83,1132.00 337.90,1131.65 337.44,1130.90 C336.59,1129.53 338.93,1114.97 340.27,1113.25 C341.00,1112.31 347.48,1112.00 366.48,1112.00 L 391.72 1112.00 L 394.20 1102.75 L 396.67 1093.50 L 372.36 1093.23 C350.49,1092.99 347.96,1092.79 347.13,1091.23 C345.96,1089.04 349.30,1073.06 351.18,1071.87 C351.91,1071.41 363.64,1071.02 377.25,1071.02 C390.86,1071.01 402.00,1070.78 402.00,1070.52 C402.00,1070.25 403.35,1065.07 405.00,1059.00 C406.65,1052.93 408.00,1047.75 408.00,1047.48 C408.00,1047.22 388.26,1047.00 364.12,1047.00 L 320.25 1047.00 L 307.25 1099.00 L 294.25 1151.00 L 338.44 1151.00 L 382.63 1151.00 L 384.34 1143.75 ZM 397.82 1150.25 C398.84,1148.19 411.08,1123.44 425.02,1095.25 L 450.36 1044.00 L 483.71 1044.00 C509.50,1044.00 517.16,1044.28 517.48,1045.25 C517.71,1045.94 518.84,1064.28 519.98,1086.00 C522.47,1133.37 522.83,1139.65 523.52,1147.75 L 524.06 1154.00 L 503.18 1154.00 L 482.31 1154.00 L 471.16 1135.63 C465.02,1125.52 460.00,1116.97 460.00,1116.63 C460.00,1116.28 465.16,1116.00 471.48,1116.00 L 482.95 1116.00 L 482.52 1113.25 C482.29,1111.74 481.54,1102.00 480.86,1091.62 L 479.64 1072.74 L 459.32 1113.37 L 439.00 1154.00 L 417.48 1154.00 L 395.96 1154.00 L 397.82 1150.25 ZM 457.43 1110.49 C468.40,1088.26 477.94,1069.85 478.65,1069.58 C481.84,1068.36 482.65,1071.73 483.89,1091.15 C484.56,1101.79 485.27,1111.62 485.47,1112.99 C486.20,1118.23 484.78,1119.00 474.46,1119.00 C469.26,1119.00 465.00,1119.18 465.00,1119.40 C465.00,1119.61 469.31,1126.81 474.58,1135.40 L 484.16 1151.00 L 502.52 1151.00 L 520.87 1151.00 L 520.48 1147.75 C520.26,1145.96 519.83,1139.55 519.52,1133.50 C519.20,1127.45 518.07,1106.75 516.98,1087.50 C515.90,1068.25 515.01,1051.26 515.01,1049.75 L 515.00 1047.00 L 483.75 1047.00 L 452.49 1047.00 L 426.75 1098.50 C412.59,1126.83 401.00,1150.23 401.00,1150.50 C401.00,1150.78 409.21,1150.98 419.25,1150.95 L 437.50 1150.90 L 457.43 1110.49 ZM 541.49 1152.77 C541.94,1151.49 559.00,1079.94 559.00,1079.33 C559.00,1079.15 552.20,1079.00 543.89,1079.00 C532.24,1079.00 528.89,1078.71 529.22,1077.75 C529.47,1077.06 531.61,1069.21 533.99,1060.30 L 538.32 1044.09 L 583.91 1043.79 C633.30,1043.46 633.52,1043.43 638.64,1037.84 C641.37,1034.84 641.79,1033.35 642.87,1022.69 C643.97,1011.84 645.64,1009.61 653.88,1007.97 C670.21,1004.73 678.09,1000.43 679.50,993.98 C680.32,990.29 681.63,990.97 684.08,996.37 C687.83,1004.64 685.76,1013.49 678.61,1019.76 C676.69,1021.46 671.47,1024.73 667.02,1027.05 C654.29,1033.67 651.39,1038.44 648.64,1057.20 C646.00,1075.26 642.10,1078.12 619.01,1078.97 L 604.51 1079.50 L 603.23 1084.50 C602.53,1087.25 598.44,1103.90 594.15,1121.50 L 586.34 1153.50 L 563.69 1153.77 C545.74,1153.98 541.14,1153.77 541.49,1152.77 ZM 592.67 1114.83 C597.53,1094.93 602.09,1078.05 602.82,1077.33 C603.78,1076.36 607.76,1075.99 617.32,1075.96 C639.99,1075.88 643.61,1073.17 646.03,1054.43 C648.17,1037.93 653.26,1030.42 667.00,1023.50 C679.27,1017.32 684.22,1010.31 682.56,1001.45 L 681.89 997.90 L 679.18 1000.80 C674.73,1005.58 668.18,1008.30 654.72,1011.00 C647.45,1012.45 646.43,1014.00 645.58,1024.86 C644.68,1036.51 642.03,1040.85 633.49,1044.70 C629.90,1046.32 625.02,1046.55 585.08,1047.00 L 540.67 1047.50 L 536.86 1061.00 C534.77,1068.43 533.04,1074.84 533.03,1075.25 C533.01,1075.66 539.02,1076.00 546.38,1076.00 C557.04,1076.00 560.01,1076.30 561.00,1077.50 C562.01,1078.72 560.70,1085.46 553.97,1113.75 C549.43,1132.86 545.50,1149.06 545.25,1149.75 C544.89,1150.72 549.11,1151.00 564.31,1151.00 L 583.84 1151.00 L 592.67 1114.83 ZM 35.95 1015.25 C35.92,1014.84 41.88,990.09 49.20,960.25 L 62.50 906.01 L 90.25 906.00 C105.51,906.00 118.00,906.34 118.01,906.75 C118.02,907.16 119.57,919.42 121.46,934.00 C123.36,948.58 124.93,960.70 124.95,960.95 C124.99,961.36 134.73,944.28 150.72,915.75 L 156.18 906.00 L 182.59 906.00 C197.12,906.00 209.00,906.22 209.00,906.49 C209.00,907.05 184.60,1006.06 182.98,1012.07 L 181.92 1016.00 L 162.96 1016.00 C146.13,1016.00 144.00,1015.82 144.00,1014.38 C144.00,1013.48 146.72,1001.06 150.05,986.77 C153.38,972.47 155.97,960.65 155.80,960.50 C155.64,960.35 148.30,972.77 139.50,988.11 L 123.50 1015.99 L 111.50 1015.75 L 99.50 1015.50 L 95.46 987.00 L 91.42 958.50 L 86.26 978.50 C83.42,989.50 80.12,1002.44 78.92,1007.25 L 76.75 1016.00 L 56.38 1016.00 C45.17,1016.00 35.98,1015.66 35.95,1015.25 ZM 81.48 985.10 C86.45,965.70 89.00,957.38 90.22,956.62 C93.91,954.32 94.36,956.06 99.01,991.00 C100.15,999.53 101.34,1007.96 101.65,1009.75 L 102.22 1013.00 L 111.90 1013.00 L 121.57 1013.00 L 136.86 986.52 C145.26,971.96 152.94,959.06 153.92,957.85 C156.10,955.16 159.00,955.97 159.00,959.27 C159.00,961.22 149.06,1005.74 147.39,1011.25 C146.91,1012.87 148.11,1013.00 163.33,1013.00 L 179.79 1013.00 L 191.99 963.25 C198.70,935.89 204.42,912.48 204.71,911.23 L 205.23 908.96 L 181.46 909.23 L 157.70 909.50 L 142.49 936.50 C127.88,962.44 125.41,965.81 122.86,963.26 C122.03,962.43 120.61,952.69 117.03,923.00 C116.39,917.78 115.67,912.49 115.42,911.25 L 114.96 909.00 L 90.02 909.00 L 65.08 909.00 L 64.07 912.75 C60.86,924.74 40.00,1010.39 40.00,1011.60 C40.00,1012.82 42.72,1013.00 57.23,1012.77 L 74.46 1012.50 L 81.48 985.10 ZM 201.40 1014.25 C201.70,1013.29 207.61,989.33 214.52,961.00 C221.44,932.67 227.34,908.71 227.62,907.75 C228.09,906.15 230.07,906.00 250.63,906.00 C271.60,906.00 273.10,906.12 272.60,907.75 C272.31,908.71 270.29,916.92 268.11,926.00 C263.33,945.85 247.10,1011.78 246.38,1014.25 C245.91,1015.85 243.93,1016.00 223.37,1016.00 C202.40,1016.00 200.90,1015.88 201.40,1014.25 ZM 255.97 962.75 C262.77,935.11 268.53,911.71 268.78,910.75 C269.20,909.13 267.82,909.00 249.84,909.00 L 230.44 909.00 L 218.20 958.75 C211.46,986.11 205.69,1009.51 205.36,1010.75 L 204.77 1013.00 L 224.18 1013.00 L 243.60 1013.00 L 255.97 962.75 ZM 259.01 1015.25 C259.01,1014.84 271.15,990.08 285.98,960.24 L 312.96 905.97 L 346.73 906.24 L 380.50 906.50 L 382.13 936.50 C383.02,953.00 384.26,975.95 384.89,987.50 C385.51,999.05 386.20,1010.19 386.42,1012.25 L 386.81 1016.00 L 366.09 1016.00 L 345.37 1016.00 L 343.26 1012.25 C342.09,1010.19 336.85,1001.53 331.60,993.00 L 322.06 977.50 L 333.64 977.22 L 345.22 976.93 L 344.49 962.72 C344.08,954.90 343.45,945.35 343.08,941.50 L 342.41 934.50 L 321.96 975.25 L 301.51 1016.00 L 280.26 1016.00 C268.57,1016.00 259.00,1015.66 259.01,1015.25 ZM 319.96 972.49 C331.50,949.05 340.62,931.70 341.60,931.32 C342.64,930.93 343.78,931.34 344.55,932.40 C345.88,934.22 347.28,952.29 347.42,969.50 L 347.50 979.50 L 337.75 979.79 C332.39,979.94 328.00,980.33 328.00,980.65 C328.00,980.97 332.35,988.38 337.66,997.11 L 347.32 1013.00 L 365.16 1013.00 L 383.00 1013.00 L 383.00 1007.75 C382.99,1002.95 381.64,978.13 380.58,963.50 C380.34,960.20 379.59,946.59 378.90,933.25 L 377.66 909.00 L 346.33 909.00 L 315.00 909.00 L 289.50 960.00 C275.48,988.04 264.00,1011.44 264.00,1012.00 C264.00,1012.63 270.62,1013.00 282.00,1013.00 L 300.00 1013.00 L 319.96 972.49 ZM 397.97 1014.77 C397.96,1014.07 403.90,989.31 411.17,959.75 L 424.40 906.00 L 452.20 906.00 C473.77,906.00 480.00,906.28 480.00,907.25 C480.00,908.56 483.70,938.30 484.50,943.50 C484.76,945.15 485.27,949.55 485.63,953.28 C486.00,957.01 486.59,960.25 486.96,960.47 C487.32,960.70 493.62,950.00 500.96,936.69 C508.29,923.39 515.16,911.04 516.23,909.25 L 518.16 906.00 L 544.58 906.00 C561.79,906.00 571.00,906.35 571.00,907.02 C571.00,907.85 548.25,999.61 544.91,1012.25 L 543.92 1016.00 L 524.39 1016.00 C506.26,1016.00 504.90,1015.88 505.40,1014.25 C506.70,1009.96 517.97,960.64 517.71,960.38 C517.55,960.22 510.24,972.55 501.46,987.79 L 485.50 1015.50 L 473.41 1015.78 L 461.33 1016.06 L 457.44 988.09 C455.30,972.70 453.33,960.34 453.05,960.62 C452.78,960.89 449.39,973.35 445.52,988.31 L 438.50 1015.50 L 418.25 1015.77 C402.41,1015.98 397.99,1015.76 397.97,1014.77 ZM 437.01 1009.25 C437.61,1007.19 440.92,994.47 444.37,981.00 C450.01,958.93 450.85,956.47 452.81,956.18 C454.32,955.96 455.27,956.57 455.92,958.18 C456.44,959.46 458.27,971.08 459.98,984.00 C461.70,996.92 463.34,1008.74 463.63,1010.25 L 464.16 1013.00 L 473.83 1012.98 L 483.50 1012.96 L 499.91 984.48 C512.19,963.18 516.79,956.00 518.19,956.00 C519.22,956.00 520.34,956.74 520.69,957.63 C521.17,958.88 512.27,1000.98 509.36,1011.25 C508.90,1012.87 510.12,1013.00 525.22,1013.00 L 541.57 1013.00 L 554.70 960.98 L 567.83 908.96 L 543.68 909.23 L 519.52 909.50 L 504.32 937.00 C489.86,963.18 487.33,966.73 484.86,964.26 C484.22,963.62 477.35,915.44 477.01,909.23 C477.01,909.09 465.66,909.09 451.79,909.23 L 426.58 909.50 L 414.31 959.40 C407.56,986.84 401.78,1010.12 401.45,1011.15 C400.90,1012.90 401.78,1013.00 418.39,1013.00 L 435.92 1013.00 L 437.01 1009.25 ZM 562.99 1014.77 C562.98,1014.07 568.93,989.31 576.20,959.75 L 589.43 906.00 L 611.71 906.00 C628.90,906.00 633.99,906.29 633.96,907.25 C633.94,907.94 627.96,932.58 620.68,962.00 L 607.45 1015.50 L 585.22 1015.77 C567.80,1015.98 563.00,1015.76 562.99,1014.77 ZM 605.91 1009.25 C608.71,998.68 630.00,910.98 630.00,910.04 C630.00,909.29 624.12,909.04 610.82,909.23 L 591.63 909.50 L 579.49 959.00 C572.80,986.22 567.01,1009.51 566.60,1010.75 L 565.87 1013.00 L 585.39 1013.00 L 604.92 1013.00 L 605.91 1009.25 ZM 305.00 871.40 C264.90,867.88 228.85,854.94 198.00,833.00 C148.00,797.45 115.86,742.13 109.90,681.40 C107.54,657.30 110.16,626.63 116.47,604.50 C124.13,577.61 137.69,550.74 153.81,530.50 C166.87,514.09 189.19,493.43 205.27,482.87 C210.33,479.56 213.61,476.81 212.85,476.55 C212.11,476.29 207.68,475.13 203.00,473.98 C177.43,467.66 146.66,456.54 124.11,445.47 C88.49,427.99 65.81,406.94 57.89,384.00 C54.51,374.22 54.70,360.20 58.35,349.62 C73.02,307.12 136.43,273.29 242.00,251.62 C290.90,241.59 335.09,237.00 418.84,233.23 L 435.17 232.50 L 437.96 223.81 C448.76,190.17 477.55,167.03 520.50,157.49 C544.33,152.19 548.01,149.57 546.04,139.25 C545.54,136.64 543.54,129.63 541.58,123.67 C534.11,100.89 534.35,91.86 542.70,81.95 C550.48,72.70 570.02,64.82 585.66,64.62 C590.70,64.55 595.14,64.82 595.54,65.21 C595.94,65.61 593.02,69.40 589.06,73.64 C580.76,82.54 578.60,86.28 577.09,94.47 C575.33,103.97 575.81,114.76 578.72,131.15 C582.38,151.78 582.56,172.37 579.17,181.50 C577.94,184.80 575.76,189.30 574.33,191.50 L 571.72 195.50 L 574.45 193.00 C579.22,188.62 586.92,177.46 590.41,169.86 C593.67,162.74 594.47,159.55 595.40,150.00 C596.91,134.60 597.31,132.08 598.20,132.62 C600.25,133.89 605.98,144.00 607.93,149.78 C611.06,159.09 612.99,173.23 613.00,186.94 L 613.00 199.37 L 615.75 196.87 C617.26,195.49 621.75,191.99 625.73,189.10 C635.31,182.13 641.39,175.24 642.99,169.55 C644.40,164.49 644.01,158.39 641.09,140.00 C639.47,129.78 639.27,126.72 640.32,128.08 C640.50,128.31 644.49,133.23 649.19,139.00 C664.33,157.61 671.05,170.25 672.96,183.75 C675.45,201.25 669.84,211.59 650.13,225.86 C633.87,237.63 629.00,242.71 629.00,247.91 C629.00,250.46 629.32,250.59 640.51,252.75 C666.58,257.76 701.46,267.42 725.00,276.15 C741.38,282.22 769.69,296.00 780.17,303.00 C803.37,318.50 819.45,337.99 822.91,354.80 C823.51,357.71 824.00,363.85 824.00,368.44 C824.00,385.20 817.50,398.69 802.00,414.11 C771.51,444.43 713.66,468.48 632.77,484.45 C618.01,487.36 591.91,491.65 583.20,492.59 C577.94,493.16 576.15,493.88 572.45,496.94 C561.28,506.17 552.04,519.82 546.42,535.40 C541.07,550.24 540.70,553.82 540.50,592.50 C540.26,637.98 538.15,658.98 531.12,685.70 C522.57,718.25 520.57,725.24 517.35,733.95 C487.41,814.82 411.34,869.33 325.50,871.41 C316.70,871.62 307.48,871.62 305.00,871.40 ZM 337.50 867.97 C373.54,864.60 405.83,853.14 435.62,833.14 C476.53,805.68 505.19,766.09 519.67,717.02 C534.35,667.31 538.69,636.78 537.59,591.00 C536.91,562.32 537.75,552.42 542.06,538.50 C544.98,529.09 551.15,516.96 557.21,508.74 C562.86,501.09 573.39,491.13 576.46,490.54 C577.58,490.33 586.60,488.97 596.50,487.52 C644.86,480.46 695.30,467.76 730.50,453.80 C764.00,440.52 792.35,422.43 806.43,405.36 C812.76,397.69 818.31,386.90 820.04,378.90 C821.80,370.77 820.83,355.87 818.09,348.76 C804.85,314.55 751.63,283.26 672.50,263.17 C659.58,259.89 628.39,253.00 626.46,253.00 C625.58,253.00 626.01,246.11 627.06,243.32 C628.68,239.03 633.25,234.73 647.71,223.88 C654.98,218.43 662.05,212.49 663.43,210.68 C674.19,196.57 672.09,176.24 657.68,155.00 C653.99,149.56 644.65,138.02 644.25,138.42 C644.09,138.57 644.70,143.61 645.59,149.60 C646.48,155.60 646.98,162.81 646.69,165.62 C645.70,175.38 639.97,182.93 626.24,192.57 C622.54,195.17 618.30,198.40 616.84,199.75 C615.07,201.38 613.54,201.99 612.23,201.57 C610.42,201.00 610.23,199.67 609.68,183.73 C608.97,162.75 606.02,148.66 600.95,141.94 C599.24,139.67 599.20,139.80 598.53,148.56 C597.25,165.40 592.74,175.92 580.39,190.81 C572.72,200.05 571.10,201.36 568.50,200.36 C566.17,199.47 566.68,197.57 571.03,190.83 C577.20,181.28 578.51,175.81 578.42,160.00 C578.37,150.02 577.65,142.61 575.67,131.59 C572.62,114.58 572.26,101.76 574.56,92.01 C576.42,84.10 579.40,78.90 585.42,73.04 C587.94,70.59 590.00,68.23 590.00,67.79 C590.00,65.74 573.15,68.47 563.45,72.11 C554.99,75.27 546.31,81.44 543.03,86.62 C537.53,95.29 537.91,102.23 545.18,125.00 C547.38,131.88 549.25,139.60 549.34,142.17 C549.64,150.94 543.88,155.32 527.17,159.01 C494.15,166.30 469.35,179.53 455.37,197.31 C448.99,205.43 441.79,219.57 439.52,228.45 C438.69,231.72 437.67,234.73 437.25,235.14 C436.84,235.55 422.33,236.36 405.00,236.95 C265.49,241.71 148.85,269.35 93.00,310.87 C63.68,332.67 52.25,359.32 61.41,384.54 C65.06,394.59 69.75,401.58 79.51,411.48 C102.07,434.36 142.11,454.03 197.50,469.44 C211.28,473.27 217.00,475.69 217.00,477.66 C217.00,478.33 213.06,481.43 208.25,484.56 C175.60,505.80 147.04,538.63 131.04,573.30 C126.28,583.62 118.73,605.31 116.71,614.50 C113.08,630.95 111.71,646.85 112.29,665.99 C112.60,676.17 113.58,688.78 114.46,694.00 C123.07,745.13 149.60,790.68 189.62,822.99 C230.47,855.98 285.79,872.81 337.50,867.97 ZM 296.00 862.94 C279.04,860.85 258.99,855.75 244.27,849.80 L 236.04 846.47 L 235.61 833.49 C235.21,821.41 233.97,814.53 229.47,799.42 C228.86,797.35 228.94,797.34 236.68,798.61 C240.98,799.32 248.05,799.92 252.38,799.95 L 260.26 800.00 L 273.41 812.75 C280.64,819.76 290.47,828.12 295.26,831.33 C312.86,843.12 333.57,852.39 352.76,857.06 C357.85,858.30 361.88,859.46 361.71,859.62 C361.54,859.79 357.15,860.65 351.95,861.54 C340.75,863.45 306.98,864.30 296.00,862.94 ZM 345.98 859.51 C346.61,859.12 342.57,857.27 337.00,855.40 C310.66,846.57 280.97,827.44 265.01,809.01 L 259.80 803.00 L 252.65 802.99 C248.72,802.99 242.83,802.55 239.56,802.02 C236.30,801.48 233.53,801.15 233.43,801.27 C233.32,801.40 234.32,805.78 235.66,811.00 C237.24,817.15 238.31,824.81 238.70,832.71 L 239.30 844.92 L 247.90 848.03 C264.68,854.11 280.44,858.01 296.00,859.95 C304.30,860.98 344.17,860.63 345.98,859.51 ZM 378.00 848.43 C341.94,843.79 309.12,828.78 287.61,807.11 L 280.77 800.22 L 285.13 799.56 C287.54,799.21 295.58,797.76 303.00,796.34 L 316.50 793.77 L 324.75 799.45 C366.16,827.97 421.93,826.42 467.56,795.49 C472.75,791.97 477.00,789.47 477.00,789.95 C477.00,791.96 452.66,815.14 442.71,822.61 C425.68,835.40 397.80,850.16 391.20,849.89 C389.72,849.83 383.77,849.17 378.00,848.43 ZM 408.35 840.18 C425.88,831.56 447.53,816.70 456.00,807.49 C458.48,804.79 458.44,804.80 451.50,808.27 C427.77,820.14 396.32,825.48 372.84,821.61 C354.56,818.61 338.58,812.39 324.06,802.63 L 315.62 796.95 L 301.35 799.72 L 287.08 802.48 L 289.79 805.35 C294.68,810.53 308.33,820.65 317.49,825.89 C333.59,835.11 355.25,842.31 374.84,844.95 C379.05,845.52 383.85,846.17 385.50,846.39 C391.88,847.25 396.58,845.98 408.35,840.18 ZM 213.00 833.75 C187.99,817.87 166.91,797.44 150.31,773.00 C146.37,767.20 137.96,752.00 138.70,752.00 C139.00,752.00 142.39,754.96 146.22,758.57 C150.06,762.19 155.89,767.13 159.18,769.56 C167.02,775.33 186.75,784.94 200.22,789.55 L 210.94 793.22 L 213.88 800.86 C215.50,805.06 217.56,811.36 218.47,814.86 C220.40,822.32 221.71,838.03 220.40,837.94 C219.90,837.91 216.57,836.03 213.00,833.75 ZM 217.61 826.52 C216.85,819.08 212.86,804.60 210.05,799.10 C208.30,795.67 207.36,795.09 199.32,792.43 C187.10,788.41 162.25,775.95 155.56,770.50 C152.50,768.01 150.00,766.23 150.00,766.53 C150.00,768.10 161.25,783.41 168.96,792.34 C177.88,802.66 186.29,810.58 198.00,819.69 C204.28,824.58 216.80,833.00 217.79,833.00 C218.06,833.00 217.98,830.09 217.61,826.52 ZM 377.96 804.96 C374.36,804.46 367.38,802.89 362.46,801.47 C352.50,798.60 334.35,790.06 334.91,788.50 C335.11,787.95 338.70,786.11 342.89,784.41 C376.54,770.74 412.68,746.44 440.08,719.07 C466.66,692.52 486.08,663.19 500.36,628.00 C512.00,599.33 517.94,573.72 521.02,539.00 C523.22,514.09 527.54,501.37 536.96,491.95 C545.93,482.97 562.13,477.55 578.00,478.20 L 585.20 478.50 L 578.51 482.93 C560.21,495.02 544.59,516.30 537.71,538.50 C533.50,552.08 532.93,558.66 532.60,598.00 C532.27,637.81 531.41,648.23 526.50,672.50 C515.01,729.24 487.53,770.09 447.16,790.42 C425.39,801.38 396.30,807.49 377.96,804.96 ZM 410.35 799.98 C439.70,793.59 461.90,781.44 481.07,761.27 C505.49,735.59 521.03,697.73 527.57,648.00 C528.72,639.32 529.45,622.82 529.97,594.00 C530.67,555.42 530.88,551.91 532.98,544.06 C539.27,520.56 552.51,499.37 569.00,486.42 C572.40,483.75 574.64,481.38 573.98,481.16 C572.12,480.54 557.97,483.04 553.50,484.78 C546.38,487.54 539.04,493.09 534.96,498.80 C529.38,506.58 526.38,516.93 524.53,534.69 C520.77,570.98 517.66,586.86 509.52,611.50 C499.34,642.31 486.36,667.10 466.58,693.50 C455.93,707.71 432.81,731.28 418.00,743.02 C398.10,758.80 370.63,775.64 350.75,784.25 C345.39,786.58 341.00,788.76 341.00,789.10 C341.00,790.25 356.77,796.94 364.42,799.04 C380.29,803.39 393.44,803.66 410.35,799.98 ZM 261.30 775.34 C239.01,740.98 225.47,702.80 220.50,660.37 C218.79,645.67 218.55,618.75 220.01,605.50 C223.04,578.21 230.68,552.42 240.75,535.50 C245.84,526.94 257.95,512.17 269.00,501.05 C290.28,479.64 309.37,467.72 350.82,449.98 C365.44,443.72 372.84,439.11 379.16,432.30 C387.47,423.34 390.96,413.21 390.98,398.00 C390.99,387.81 389.92,380.73 385.79,363.50 C381.83,346.99 381.51,334.47 384.84,325.92 C386.59,321.43 388.25,319.35 393.26,315.31 C403.90,306.75 407.36,304.83 411.57,305.18 L 415.33 305.50 L 415.47 313.50 C415.73,327.97 422.74,338.77 432.99,340.50 C438.54,341.44 447.17,339.38 451.82,336.02 C457.73,331.73 459.44,326.40 458.72,314.42 L 458.15 304.89 L 470.33 305.58 C477.02,305.95 482.58,306.32 482.67,306.39 C482.76,306.45 482.45,309.43 481.98,313.00 C481.51,316.58 480.64,334.35 480.06,352.50 C478.25,408.38 476.52,426.80 471.03,448.50 C463.33,478.92 449.37,505.37 427.69,530.57 C414.22,546.24 398.54,560.16 353.41,596.50 C334.93,611.38 313.84,631.77 305.33,643.00 C297.09,653.86 288.76,670.73 285.31,683.50 C282.77,692.91 282.61,694.79 282.59,715.50 C282.56,736.77 282.65,737.80 285.33,746.45 C288.53,756.76 294.25,768.21 299.95,775.72 C302.13,778.59 303.60,781.13 303.21,781.36 C302.19,781.98 283.73,784.74 275.41,785.51 L 268.33 786.17 L 261.30 775.34 ZM 288.75 780.89 C293.84,780.24 298.00,779.53 298.00,779.29 C298.00,779.06 295.75,775.19 293.01,770.69 C282.99,754.25 279.00,738.71 279.00,716.17 C279.00,699.12 280.66,687.81 285.10,674.50 C294.17,647.37 311.52,626.62 353.50,592.70 C396.70,557.80 417.22,539.18 430.28,523.00 C444.86,504.96 457.03,483.01 463.83,462.50 C472.47,436.46 474.58,420.05 476.53,364.00 C477.34,340.62 478.28,318.76 478.62,315.40 L 479.25 309.31 L 470.99 308.62 C466.45,308.24 462.55,308.11 462.33,308.34 C462.11,308.56 461.83,313.26 461.71,318.79 C461.51,328.20 461.31,329.10 458.46,333.16 C452.84,341.15 441.37,345.30 431.17,343.01 C420.77,340.69 413.19,329.35 412.45,315.00 C412.03,306.90 410.88,306.47 403.24,311.54 C393.79,317.82 388.41,323.48 386.87,328.77 C384.64,336.47 385.33,348.88 388.81,363.50 C392.93,380.81 393.99,387.84 393.98,398.00 C393.96,418.40 386.20,433.50 370.62,443.47 C367.58,445.41 357.95,450.11 349.20,453.91 C309.17,471.33 291.93,482.26 270.76,503.65 C248.25,526.40 237.91,542.73 230.64,567.00 C225.03,585.74 222.87,600.59 222.28,624.50 C221.71,647.95 223.09,663.91 227.58,685.88 C233.93,716.95 250.34,755.65 266.78,778.32 C270.74,783.79 268.23,783.49 288.75,780.89 ZM 233.60 783.47 C229.26,782.74 224.71,781.89 223.49,781.59 C221.94,781.20 218.95,777.06 213.51,767.77 C209.24,760.47 197.76,742.56 188.00,727.97 C164.94,693.50 155.61,677.12 149.83,661.00 C142.42,640.34 140.02,611.71 143.83,589.50 C149.20,558.18 162.33,532.63 184.46,510.42 C204.13,490.68 225.08,478.74 262.34,466.00 C284.98,458.27 296.84,453.37 310.00,446.30 C329.72,435.72 345.71,422.31 353.02,410.21 C357.09,403.48 360.84,389.61 363.48,371.50 C364.36,365.45 365.55,358.75 366.12,356.60 C367.15,352.72 371.61,342.00 372.19,342.00 C372.36,342.00 372.62,345.49 372.76,349.75 C372.91,354.16 374.33,362.74 376.05,369.66 C381.64,392.18 381.78,405.25 376.55,416.68 C371.60,427.48 361.66,434.37 333.50,446.49 C287.76,466.18 259.77,487.02 235.97,519.12 C210.35,553.68 199.03,611.23 206.55,668.71 C211.97,710.22 226.04,749.12 247.78,782.75 C249.20,784.95 249.14,785.00 245.37,784.90 C243.24,784.84 237.95,784.20 233.60,783.47 ZM 243.00 781.50 C243.00,781.22 240.35,776.38 237.10,770.75 C211.66,726.53 198.11,667.36 201.82,616.67 C205.60,564.98 219.80,529.77 249.66,498.02 C270.61,475.75 291.58,462.03 333.06,443.45 C368.07,427.77 374.52,422.01 377.11,404.12 C378.27,396.07 377.09,386.31 372.85,369.00 C369.18,354.00 368.98,354.06 366.50,371.13 C362.18,400.84 357.56,412.32 344.79,425.09 C327.65,442.23 300.49,456.62 260.00,470.02 C227.59,480.75 205.25,493.65 186.50,512.47 C159.74,539.32 145.00,574.86 145.00,612.53 C145.00,649.85 153.33,671.01 188.91,724.00 C204.61,747.39 216.78,766.72 220.98,774.96 C223.02,778.96 223.66,779.17 242.25,781.89 C242.66,781.95 243.00,781.77 243.00,781.50 ZM 312.82 769.67 C305.91,761.30 300.52,750.32 297.87,739.27 C296.04,731.61 295.84,728.48 296.29,714.50 C296.91,695.85 299.40,684.34 305.79,670.71 C317.08,646.63 332.69,630.22 383.00,589.57 C428.53,552.80 448.99,529.40 466.15,494.50 C477.45,471.53 484.54,446.80 488.44,416.86 C489.28,410.46 490.88,390.66 492.00,372.86 C494.01,341.11 495.07,329.49 497.05,317.50 C499.03,305.53 497.58,306.67 509.80,307.43 C526.39,308.46 545.41,310.08 545.82,310.49 C546.03,310.69 544.85,312.81 543.20,315.20 C535.06,327.03 526.18,346.52 521.55,362.68 C515.13,385.12 513.21,406.29 511.99,468.00 C510.95,521.09 508.88,541.99 501.41,575.20 C487.41,637.32 455.03,690.05 407.22,728.57 C393.06,739.97 372.62,753.50 359.27,760.29 C347.28,766.40 327.46,774.46 321.85,775.50 C318.30,776.17 318.05,776.01 312.82,769.67 ZM 334.00 768.32 C364.40,757.04 397.35,735.44 424.36,709.06 C467.34,667.08 492.05,617.69 502.93,552.00 C507.16,526.45 508.12,513.15 509.02,468.00 C510.39,399.05 512.63,378.61 521.65,352.69 C525.05,342.94 533.76,324.51 538.59,316.86 L 541.00 313.04 L 538.75 312.57 C536.70,312.14 506.72,309.99 502.86,310.00 C501.80,310.00 501.02,311.15 500.64,313.25 C498.74,323.74 496.85,342.91 495.53,365.15 C491.32,435.51 484.79,465.90 466.34,501.00 C449.74,532.59 429.24,555.98 391.37,586.54 C379.89,595.81 366.45,606.79 361.50,610.94 C314.34,650.52 299.00,676.96 299.00,718.68 C299.00,726.35 299.61,733.86 300.59,738.30 C302.62,747.48 308.59,759.86 314.60,767.32 C319.98,774.02 318.80,773.96 334.00,768.32 ZM 187.42 769.01 C153.65,752.05 130.60,723.73 119.57,685.64 C117.29,677.78 117.00,674.98 117.00,660.94 C117.00,652.23 117.68,639.95 118.50,633.66 C120.33,619.70 126.68,594.00 128.29,594.00 C128.48,594.00 128.23,597.26 127.73,601.25 C126.54,610.67 127.45,631.22 129.53,642.00 C133.08,660.40 141.28,680.76 153.55,701.65 C156.73,707.07 167.28,723.42 177.00,738.00 C195.71,766.08 200.53,773.81 199.79,774.55 C199.54,774.80 193.97,772.31 187.42,769.01 ZM 190.31 763.25 C188.29,760.09 181.07,749.29 174.25,739.25 C139.42,687.92 129.27,665.14 124.27,627.00 L 123.42 620.50 L 121.96 629.50 C121.01,635.34 120.50,645.87 120.50,659.50 L 120.50 680.50 L 124.20 691.17 C135.65,724.25 157.12,749.88 186.38,765.40 C190.11,767.38 193.35,769.00 193.57,769.00 C193.79,769.00 192.32,766.41 190.31,763.25 ZM 614.70 473.40 C609.32,470.48 591.41,465.19 581.10,463.47 C569.24,461.48 553.15,461.87 544.00,464.35 C540.98,465.17 538.36,465.69 538.18,465.51 C537.78,465.11 541.40,458.07 543.17,455.80 C544.20,454.49 547.91,453.75 559.50,452.52 C664.85,441.35 736.73,417.18 752.21,387.72 C755.23,381.97 755.28,372.12 752.32,366.50 C739.49,342.20 688.47,321.08 609.87,307.54 C550.79,297.37 493.60,293.37 420.50,294.32 C376.45,294.88 364.97,295.43 330.50,298.57 C261.98,304.81 199.28,318.74 164.25,335.50 C138.10,348.01 126.00,360.52 126.03,375.00 C126.05,382.17 128.60,387.64 135.15,394.57 C154.30,414.81 203.22,432.86 270.11,444.35 L 289.50 447.68 L 285.50 449.46 C275.38,453.97 233.16,468.24 230.28,468.13 C225.66,467.95 194.79,459.95 179.50,454.97 C118.20,435.01 79.93,409.34 69.81,381.39 C66.84,373.18 66.87,360.63 69.88,352.85 C78.41,330.80 102.37,311.07 141.41,293.97 C196.49,269.84 273.84,253.84 368.50,246.98 C392.94,245.21 459.72,244.60 487.50,245.89 C657.52,253.81 788.21,296.86 810.07,352.17 C812.78,359.01 813.64,370.11 812.01,377.11 C807.49,396.54 786.82,417.15 756.09,432.89 C726.95,447.82 686.77,461.12 641.33,470.88 C620.08,475.45 618.71,475.58 614.70,473.40 ZM 638.83 468.45 C696.40,456.19 743.75,438.92 773.00,419.51 C805.89,397.69 817.11,373.56 805.54,349.52 C800.60,339.24 786.85,325.08 773.00,316.01 C708.82,273.97 581.47,248.00 439.50,248.00 C272.41,248.00 127.48,284.03 82.85,336.66 C56.19,368.11 72.84,402.89 127.99,430.94 C151.39,442.84 183.43,454.23 215.55,462.05 L 231.60 465.97 L 240.05 462.69 C244.70,460.88 255.16,457.22 263.30,454.55 C271.43,451.88 277.73,449.39 277.30,449.02 C276.86,448.65 269.40,447.11 260.72,445.59 C202.42,435.39 153.44,416.89 134.01,397.74 C125.79,389.64 123.49,384.55 123.53,374.50 C123.56,364.58 125.65,360.16 134.39,351.46 C162.80,323.17 242.80,302.19 355.50,293.45 C383.35,291.29 457.44,290.43 488.05,291.91 C596.94,297.18 685.32,315.35 730.29,341.72 C740.15,347.51 751.76,358.65 755.07,365.50 C756.85,369.20 757.48,372.19 757.49,377.00 C757.50,385.89 753.98,392.91 745.59,400.77 C718.77,425.86 656.36,444.53 564.54,454.95 C552.25,456.35 546.12,457.46 545.10,458.47 C542.79,460.78 544.31,461.23 550.59,460.07 C558.85,458.54 571.16,458.75 582.07,460.60 C591.67,462.22 610.47,467.87 615.00,470.49 C618.57,472.55 620.26,472.40 638.83,468.45 ZM 527.03 449.30 C527.00,424.42 529.08,396.53 532.10,381.50 C534.75,368.31 539.93,352.98 545.95,340.50 C551.41,329.18 562.49,311.99 564.31,312.01 C566.11,312.03 600.08,316.89 603.35,317.59 C607.08,318.39 606.31,318.97 594.78,323.97 C581.75,329.63 575.14,334.48 571.59,341.02 C569.06,345.65 568.80,346.97 569.22,352.87 C570.06,364.51 575.84,371.99 584.00,371.99 C590.79,371.99 595.58,367.16 598.87,356.97 C601.45,348.98 610.24,342.07 617.90,342.02 L 621.30 342.00 L 617.18 344.99 C608.59,351.21 606.58,357.49 604.17,385.68 C602.27,407.87 595.47,415.89 569.21,426.93 C547.84,435.91 537.14,446.12 529.85,464.50 L 527.07 471.50 L 527.03 449.30 ZM 543.60 438.93 C550.82,432.12 555.40,429.39 569.20,423.69 C593.04,413.84 599.27,406.61 601.08,386.68 C602.97,365.84 604.13,358.50 606.25,354.04 C609.41,347.36 609.41,347.22 606.21,350.61 C604.60,352.32 602.06,356.91 600.57,360.82 C596.35,371.85 589.77,376.30 580.30,374.53 C568.78,372.37 562.19,353.04 568.59,340.19 C571.82,333.71 577.53,328.95 588.56,323.56 L 597.07 319.39 L 581.29 317.26 C562.93,314.77 564.48,314.24 557.50,325.46 C547.27,341.88 538.86,363.00 535.05,381.84 C532.44,394.72 530.00,423.66 530.00,441.71 L 530.00 456.31 L 533.85 450.41 C535.97,447.16 540.35,441.99 543.60,438.93 ZM 557.29 442.47 C554.41,440.36 556.74,437.99 565.74,433.87 C583.73,425.64 588.80,422.95 593.66,419.08 C604.19,410.70 607.79,402.29 609.11,383.00 C609.63,375.58 610.47,367.14 610.99,364.26 C612.07,358.24 616.77,350.36 623.43,343.41 C625.94,340.79 628.00,338.50 628.00,338.32 C628.00,338.14 626.68,338.00 625.07,338.00 C622.53,338.00 619.00,335.88 619.00,334.35 C619.00,333.82 624.98,326.44 628.63,322.46 L 630.76 320.15 L 639.41 322.04 C684.63,331.92 722.97,347.38 737.43,361.58 C746.57,370.55 748.31,377.97 743.16,386.09 C728.09,409.85 663.05,430.94 569.71,442.34 C561.37,443.36 558.54,443.39 557.29,442.47 ZM 583.50 437.52 C641.74,429.50 684.35,418.68 713.50,404.52 C737.00,393.10 746.87,381.39 741.60,371.19 C739.39,366.93 730.19,358.78 722.26,354.08 C705.36,344.06 675.97,333.66 642.91,326.02 L 631.00 323.27 L 629.03 326.45 C627.95,328.20 626.15,330.46 625.03,331.47 C623.91,332.48 623.00,333.65 623.00,334.06 C623.00,334.47 625.36,335.13 628.25,335.52 C635.82,336.54 637.01,337.42 633.35,339.32 C629.11,341.51 618.69,352.94 616.20,358.13 C613.86,363.00 613.39,365.94 612.07,384.00 C611.57,390.88 610.40,398.75 609.48,401.50 C605.48,413.47 596.98,422.33 583.09,429.00 C578.37,431.26 571.35,434.63 567.50,436.49 C558.75,440.69 559.89,440.76 583.50,437.52 ZM 301.00 439.86 C222.99,429.20 162.85,410.00 141.94,389.07 C134.68,381.80 132.87,376.26 135.49,369.39 C138.98,360.26 148.48,352.50 167.13,343.54 C210.20,322.84 290.76,307.56 378.85,303.37 C390.62,302.81 393.35,302.94 394.08,304.10 C395.46,306.28 395.27,306.67 390.81,310.71 C382.68,318.06 377.44,324.23 371.91,332.96 C364.87,344.08 360.63,356.63 358.56,372.50 C355.20,398.14 351.37,407.63 339.56,419.55 C330.93,428.26 311.66,441.40 308.29,440.88 C307.86,440.81 304.58,440.35 301.00,439.86 ZM 315.20 434.34 C329.07,426.28 343.37,413.09 347.92,404.15 C350.77,398.55 352.79,390.87 354.49,379.16 C355.34,373.30 356.26,366.92 356.54,365.00 C358.19,353.69 364.58,337.96 372.04,326.88 C374.40,323.37 379.69,317.17 383.79,313.11 L 391.25 305.71 L 378.37 306.39 C307.03,310.12 245.75,319.63 200.72,333.93 C160.23,346.80 137.50,361.39 137.50,374.50 C137.50,395.99 201.40,421.86 285.50,434.40 C302.62,436.96 306.92,437.61 308.20,437.86 C308.58,437.94 311.73,436.35 315.20,434.34 ZM 614.00 248.10 C608.78,247.40 609.06,249.11 610.96,229.50 C612.22,216.53 614.17,209.71 617.79,205.65 C618.73,204.59 623.35,200.89 628.05,197.43 C638.01,190.10 644.87,183.08 648.13,176.89 C650.06,173.23 650.45,170.95 650.47,163.18 L 650.50 153.85 L 653.22 157.10 C656.92,161.53 662.47,172.35 664.40,178.93 C666.89,187.40 666.51,196.58 663.42,202.79 C660.43,208.78 655.52,213.37 642.69,222.16 C627.58,232.51 623.39,237.18 621.54,245.75 C621.16,247.54 620.31,248.93 619.67,248.85 C619.03,248.77 616.47,248.43 614.00,248.10 ZM 619.92 240.87 C621.52,235.54 628.13,228.53 637.81,221.91 C652.53,211.84 657.70,207.24 660.42,201.78 C664.76,193.07 663.75,182.30 657.43,169.90 L 654.68 164.50 L 653.37 170.24 C650.70,181.87 646.22,187.47 629.36,200.23 C617.41,209.28 615.52,212.37 614.53,224.50 C613.67,235.09 612.98,241.11 612.37,243.25 C611.96,244.67 612.50,245.00 615.27,245.00 C618.40,245.00 618.79,244.66 619.92,240.87 ZM 586.50 243.50 C585.66,243.17 571.91,241.61 541.64,238.40 L 535.78 237.78 L 541.64 231.78 C544.86,228.47 551.78,222.36 557.00,218.19 C583.82,196.80 596.05,181.62 601.06,163.50 L 602.71 157.50 L 604.11 166.50 C604.93,171.82 605.45,182.25 605.38,192.00 C605.25,210.53 603.28,220.54 596.79,235.63 C593.72,242.78 593.14,243.52 590.45,243.69 C588.83,243.80 587.05,243.71 586.50,243.50 ZM 594.80 232.50 C601.02,217.72 603.84,199.03 602.52,181.41 L 601.79 171.70 L 598.63 177.60 C590.91,191.99 581.26,202.64 561.65,218.38 C547.98,229.34 542.20,234.62 543.08,235.33 C543.31,235.52 553.17,236.69 565.00,237.92 C576.83,239.16 586.71,240.38 586.96,240.63 C587.21,240.88 588.32,240.95 589.43,240.79 C590.89,240.58 592.35,238.34 594.80,232.50 ZM 507.00 235.97 C502.33,235.57 486.07,234.89 470.88,234.47 L 443.27 233.70 L 444.66 228.37 C452.78,197.26 481.49,174.20 524.04,164.61 C543.73,160.18 548.60,158.01 552.29,152.04 C555.66,146.59 555.05,139.99 549.63,123.25 C543.87,105.48 542.88,97.11 545.84,91.31 C546.99,89.06 549.82,85.59 552.14,83.61 C556.40,79.96 568.27,74.78 575.41,73.45 L 579.32 72.72 L 576.13 76.69 C567.42,87.53 565.97,102.86 570.92,131.74 C574.50,152.65 575.09,169.12 572.57,177.50 C569.32,188.33 561.91,196.99 540.50,215.03 C532.80,221.52 524.27,229.12 521.54,231.91 C518.81,234.71 516.33,236.93 516.04,236.85 C515.74,236.76 511.67,236.36 507.00,235.97 ZM 523.39 225.73 C527.85,221.73 536.85,213.99 543.38,208.53 C562.39,192.64 569.37,182.77 570.81,169.79 C571.75,161.24 570.55,145.68 567.98,133.00 C563.84,112.61 564.25,93.15 569.05,82.19 L 570.94 77.88 L 568.72 78.50 C562.99,80.08 553.43,85.81 550.59,89.35 C545.91,95.19 546.36,103.04 552.49,122.00 C562.37,152.60 558.41,160.01 528.65,166.57 C487.46,175.64 460.63,194.59 450.02,222.11 C448.36,226.41 447.00,230.18 447.00,230.47 C447.00,230.76 452.96,231.05 460.25,231.12 C467.54,231.19 479.80,231.56 487.50,231.95 C495.20,232.34 504.60,232.73 508.39,232.83 L 515.27 233.00 L 523.39 225.73 Z" fill="rgba(0,0,0,1)"/>
</g>
</svg>